<svg xmlns="http://www.w3.org/2000/svg" version="1.1" xmlns:xlink="http://www.w3.org/1999/xlink" xmlns:svgjs="http://svgjs.dev/svgjs" viewBox="0 0 1920 1080" style="overflow: hidden; height: 85vh;" class="overflow-hidden rounded-md drop-shadow-lg transition duration-300"><rect width='100%' height='100%'fill="#214d5a"/><g clip-path="url(&quot;#SvgjsClipPath3118&quot;)"><g transform="matrix(0.2976419018678993,-1.1108147002324285,1.1108147002324285,0.2976419018678993,44.83064057842262,1398.8523563278225)"><path d="M0,-1080C-2.688947028429465,-987.2514274653884,-2.1605883697070993,-694.1314066330657,-16.13368217057679,-523.5085647923302C-30.10677597144648,-352.88572295159463,-79.73629810914807,-199.5362693372489,-83.83856280521815,-56.26294895558695C-87.94082750128823,87.01037142607501,-61.83317446766134,190.10959833273282,-40.74727034699731,336.1313574976416C-19.66136622633329,482.15311666255036,48.95848284026074,684.0013036036445,42.67686191876598,819.8676060338657C36.395240997271216,955.733908464087,-77.89012581300395,1002.3423167113893,-78.43699587596589,1151.329172078969C-78.98386593892783,1300.3160274465486,26.322808895,1545.6769335858378,39.39564154099432,1713.788738239343C52.46847418698864,1881.9005428928483,6.565940256832387,2085.631456373224,0,2160L 1920 2160 L 1920 -1080 Z" fill="url(&quot;#SvgjsLinearGradient3106&quot;)"/><path d="M160,-1080C158.74589313563882,-1002.8527923200006,163.4173212321021,-810.760999485926,152.47535881383288,-617.1167539200039C141.53339639556367,-423.4725083540818,85.24395373106846,-118.23504378699874,94.34822549038472,81.86547339553269C103.45249724970098,281.9659905780641,181.8323393462697,428.8216606048828,207.10098936973048,583.4863491751846C232.36963939319128,738.1510377454864,243.86572029792373,829.0255884746936,245.96012563114942,1009.8536048173432C248.05453096437512,1190.6816211599928,233.99410897427623,1476.7633813673062,219.66742136908465,1668.4544472310824C205.34073376389307,1860.1455130948586,169.94457022818077,2078.0757412051803,160,2160L 1920 2160 L 1920 -1080 Z" fill="url(&quot;#SvgjsLinearGradient3107&quot;)"/><path d="M320,-1080C308.28476054344117,-962.9167111961204,233.9573261427691,-581.9718412064794,249.70856326064708,-377.5002671767229C265.4598003785251,-173.02869314696636,386.8931161912033,-74.5575173152659,414.5074227072679,146.8294441785393C442.12172922333247,368.2164056723445,433.3351611884691,736.8822110873037,415.39440235703466,950.8215017861082C397.4536435256002,1164.7607924849128,322.76193677816724,1228.935438669051,306.86286971866144,1430.4651883713664C290.96380265915565,1631.9949380736816,317.8104782864436,2038.4108647285611,320,2160L 1920 2160 L 1920 -1080 Z" fill="url(&quot;#SvgjsLinearGradient3108&quot;)"/><path d="M480,-1080C486.85880929986195,-1004.1239138696827,514.9334251045731,-791.9935401650235,521.1528557991717,-624.7434832180965C527.3722864937703,-457.49342627116937,539.8032565366549,-254.59001574541915,517.3165841675914,-76.49965831843761C494.82991179852786,101.59069910854393,375.3290383672611,253.09406498040536,386.23282158479054,443.7986613437928C397.13660480232,634.5032577071802,549.9879291812889,869.4580676133758,582.739283472768,1067.727919861887C615.490637764247,1265.997772110398,599.8641612457931,1451.3724281451741,582.7409473336651,1633.4177748348598C565.6177334215371,1815.4631215245454,497.1234912222775,2072.23629580581,480,2160L 1920 2160 L 1920 -1080 Z" fill="url(&quot;#SvgjsLinearGradient3109&quot;)"/><path d="M640,-1080C641.7510158344486,-998.9223656315796,649.9224635775016,-741.3969401706386,650.5060950066916,-593.5341937894781C651.0897264358815,-445.6714474083176,652.8472930909369,-358.451664924821,643.5017885751398,-192.82352171303705C634.1562840593427,-27.195378501253117,588.0810345760527,230.75752236334085,594.433067911909,400.2346654812256C600.7851012477653,569.7118085991103,674.7699425201419,693.1263704824878,681.6139885902772,824.0393369942714C688.4580346604126,954.9523035060549,633.8517483478624,1053.4548358757118,635.4973443327215,1185.7124645519268C637.1429403175805,1317.9700932281419,690.7371218882184,1455.2038531435496,691.4875644994315,1617.5851090515619C692.2380071106446,1779.966364959574,648.5812607499053,2069.59751817526,640,2160L 1920 2160 L 1920 -1080 Z" fill="url(&quot;#SvgjsLinearGradient3110&quot;)"/><path d="M800,-1080C798.2140381724491,-933.1335594494959,779.6071910183997,-463.4709663615154,789.284229034695,-198.80135669697563C798.9612670509904,65.86825296756416,867.8974488576304,249.48424817425848,858.0622280977723,508.0176579872386C848.2270073379142,766.5510678002187,739.9499424918419,1077.0687118454448,730.2729044755465,1352.399102180905C720.5958664592512,1627.729492516365,788.378817412591,2025.3998503634841,800,2160L 1920 2160 L 1920 -1080 Z" fill="url(&quot;#SvgjsLinearGradient3111&quot;)"/><path d="M960,-1080C966.1509807931969,-999.529182026341,987.6129053208954,-786.5349535846988,996.9058847591816,-597.1750921580464C1006.1988641974679,-407.81523073139397,1006.5149012646158,-149.53056675993253,1015.7578766297174,56.159168559914264C1025.0008519948192,261.84890387976105,1056.9947495257557,472.46103016292125,1052.3637369497915,636.9633197610344C1047.7327243738273,801.4656093591476,1008.4244484148896,885.2211302307529,987.9718011739317,1043.1729061485935C967.5191539329737,1201.1246820664342,934.3098203663654,1398.5361262928434,929.6478535040435,1584.6739752680778C924.9858866417215,1770.8118242433122,954.9413089173406,2064.112329211346,960,2160L 1920 2160 L 1920 -1080 Z" fill="url(&quot;#SvgjsLinearGradient3112&quot;)"/><path d="M1120,-1080C1137.398847868944,-990.8599018267208,1222.226095636422,-686.0508779032689,1224.3930872136627,-545.1594109603247C1226.5600787909034,-404.2679440173806,1139.4998787406746,-386.2059762725625,1133.0019494634435,-234.65119834233502C1126.5040201862123,-83.09642041210753,1200.8015063623975,181.24025521933672,1185.4055115502758,364.1692566210402C1170.0095167381542,547.0982580227436,1060.1887809783645,710.8797078624534,1040.625980590713,862.9228100678858C1021.0631802030613,1014.9659122733183,1055.4652855814102,1138.1288553369347,1068.028709224366,1276.427869853635C1080.5921328673217,1414.7268843703353,1107.3446406525077,1545.454875477027,1116.0065224484467,1692.7168971680878C1124.6684042443858,1839.9789188591487,1119.3344204080745,2082.119482861348,1120,2160L 1920 2160 L 1920 -1080 Z" fill="url(&quot;#SvgjsLinearGradient3113&quot;)"/><path d="M1280,-1080C1291.7225973755958,-1000.604162027168,1351.578630198194,-790.4795347713092,1350.335584253574,-603.6249721630079C1349.092538308954,-416.7704095547066,1289.0481653413876,-136.5758769814473,1272.54172433228,41.127375649807504C1256.0352833231723,218.8306282810623,1236.320393693668,273.0529399238476,1251.2969381989278,462.5945436245209C1266.2734827041877,652.1361473251942,1351.7870880440873,970.2654820807495,1362.4009913638397,1178.3769978538476C1373.014894683592,1386.4885136269456,1328.7138566780823,1547.6598045720839,1314.9803581174424,1711.2636382631092C1301.2468595568025,1874.8674719541345,1285.8300596862405,2085.210606377185,1280,2160L 1920 2160 L 1920 -1080 Z" fill="url(&quot;#SvgjsLinearGradient3114&quot;)"/><path d="M1440,-1080C1446.6279735741803,-929.5877051681608,1465.3382026843633,-441.4199968366063,1479.767841445081,-177.52623100896497C1494.197480205799,86.36753481867632,1533.3069150449794,254.57483281383642,1526.5778325643064,503.3625949658476C1519.8487500836334,752.1503571178588,1453.822985321761,1039.0941077307436,1439.3933465610432,1315.2003419031023C1424.9637078003254,1591.306576075461,1439.8988910935072,2019.2000569838503,1440,2160L 1920 2160 L 1920 -1080 Z" fill="url(&quot;#SvgjsLinearGradient3115&quot;)"/><path d="M1600,-1080C1600.593540590161,-958.890896443952,1593.8042628294404,-579.2241086715475,1603.5612435409653,-353.3453786637118C1613.3182242524902,-127.46664865587618,1660.849401479755,57.1812887079891,1658.5418842691493,275.2723800470137C1656.2343670585435,493.3634713860383,1588.499533308531,732.3774569742108,1589.7161402773304,955.201169370436C1590.9327472461298,1178.024881766661,1664.1275494615006,1411.4148493194375,1665.8415260819456,1612.2146544243649C1667.5555027023906,1813.0144595292923,1610.9735876803243,2068.702442404061,1600,2160L 1920 2160 L 1920 -1080 Z" fill="url(&quot;#SvgjsLinearGradient3116&quot;)"/><path d="M1760,-1080C1745.5456016220696,-1023.0261593343125,1681.9544726462514,-857.7084235464562,1673.2736097324178,-738.1569560058753C1664.5927468185841,-618.6054884652943,1684.0103098945972,-503.51013099975717,1707.9148225169981,-362.6911947565144C1731.819335139399,-221.8722585132716,1815.7104067573146,-38.66194482031089,1816.7006854668232,106.75666145358146C1817.6909641763318,252.1752677274738,1730.7617598909114,357.61561739263806,1713.8564947740504,509.82044288683977C1696.9512296571893,662.0252683810415,1709.1994718133408,862.6179736615032,1715.2690947656574,1019.9856144187918C1721.338717717974,1177.3532551760804,1742.1516261896372,1336.8809252597723,1750.27423248795,1454.026287430571C1758.3968387862628,1571.1716496013698,1762.3837713035266,1605.195502015346,1764.004732555535,1722.8577874435841C1765.6256938075433,1840.5200728718223,1760.6674554259225,2087.142964573931,1760,2160L 1920 2160 L 1920 -1080 Z" fill="url(&quot;#SvgjsLinearGradient3117&quot;)"/></g></g><defs><linearGradient x1="0.1" y1="0" x2="0" y2="1" id="SvgjsLinearGradient3106"><stop stop-color="#214d5a" offset="0"/><stop stop-color="#21565a" offset="0"/></linearGradient><linearGradient x1="0.1" y1="0" x2="0" y2="1" id="SvgjsLinearGradient3107"><stop stop-color="#296171" offset="0"/><stop stop-color="#296d71" offset="0.08333333333333333"/></linearGradient><linearGradient x1="0.1" y1="0" x2="0" y2="1" id="SvgjsLinearGradient3108"><stop stop-color="#327588" offset="0"/><stop stop-color="#328388" offset="0.16666666666666666"/></linearGradient><linearGradient x1="0.1" y1="0" x2="0" y2="1" id="SvgjsLinearGradient3109"><stop stop-color="#3a889f" offset="0"/><stop stop-color="#3a999f" offset="0.25"/></linearGradient><linearGradient x1="0.1" y1="0" x2="0" y2="1" id="SvgjsLinearGradient3110"><stop stop-color="#439cb7" offset="0"/><stop stop-color="#43afb7" offset="0.3333333333333333"/></linearGradient><linearGradient x1="0.1" y1="0" x2="0" y2="1" id="SvgjsLinearGradient3111"><stop stop-color="#57a9c2" offset="0"/><stop stop-color="#57bbc2" offset="0.4166666666666667"/></linearGradient><linearGradient x1="0.1" y1="0" x2="0" y2="1" id="SvgjsLinearGradient3112"><stop stop-color="#6fb5ca" offset="0"/><stop stop-color="#6fc4ca" offset="0.5"/></linearGradient><linearGradient x1="0.1" y1="0" x2="0" y2="1" id="SvgjsLinearGradient3113"><stop stop-color="#86c1d3" offset="0"/><stop stop-color="#86ced3" offset="0.5833333333333334"/></linearGradient><linearGradient x1="0.1" y1="0" x2="0" y2="1" id="SvgjsLinearGradient3114"><stop stop-color="#9dcddb" offset="0"/><stop stop-color="#9dd7db" offset="0.6666666666666666"/></linearGradient><linearGradient x1="0.1" y1="0" x2="0" y2="1" id="SvgjsLinearGradient3115"><stop stop-color="#b4d9e3" offset="0"/><stop stop-color="#b4e1e3" offset="0.75"/></linearGradient><linearGradient x1="0.1" y1="0" x2="0" y2="1" id="SvgjsLinearGradient3116"><stop stop-color="#cbe4ec" offset="0"/><stop stop-color="#cbe9ec" offset="0.8333333333333334"/></linearGradient><linearGradient x1="0.1" y1="0" x2="0" y2="1" id="SvgjsLinearGradient3117"><stop stop-color="#e2f0f4" offset="0"/><stop stop-color="#e2f3f4" offset="0.9166666666666666"/></linearGradient><clipPath id="SvgjsClipPath3118"><rect width="1920" height="1080"/></clipPath></defs></svg>